<?xml version="1.0" encoding="utf-8"?><svg xmlns="http://www.w3.org/2000/svg" xmlns:xlink="http://www.w3.org/1999/xlink"><symbol class="asvg-inline--fa afa-angle-down afa-w-10" viewBox="0 0 320 512" id="angle-down-solid" xmlns="http://www.w3.org/2000/svg"><path d="M143 352.3L7 216.3c-9.4-9.4-9.4-24.6 0-33.9l22.6-22.6c9.4-9.4 24.6-9.4 33.9 0l96.4 96.4 96.4-96.4c9.4-9.4 24.6-9.4 33.9 0l22.6 22.6c9.4 9.4 9.4 24.6 0 33.9l-136 136c-9.2 9.4-24.4 9.4-33.8 0z"/></symbol><symbol viewBox="0 0 170 280" id="arrow-left" xmlns="http://www.w3.org/2000/svg"><path d="M62 217c-34-34-62-69-62-78 0-8 29-44 65-79 55-54 68-63 83-54 31 20 26 45-19 90l-43 44 42 43c43 44 51 64 30 85-20 20-31 14-96-51z"/></symbol><symbol viewBox="0 0 170 280" id="arrow-right" xmlns="http://www.w3.org/2000/svg"><path d="M12 268c-21-21-13-41 30-85l42-43-43-44C-4 51-9 26 22 6c15-9 28 0 83 54 36 35 65 71 65 80 0 17-119 140-136 140-5 0-15-5-22-12z"/></symbol><symbol viewBox="0 0 330 330" id="check" xmlns="http://www.w3.org/2000/svg"><path d="M72 257c-93-93-93-102-4-190 80-79 110-86 157-37l29 31-47 46-46 47-31-29-30-29-25 24c-14 13-25 28-25 35 0 13 102 115 116 115 5 0 41-31 79-70 38-38 73-70 77-70 5 0 8 12 8 27 0 21-18 46-72 100-43 43-81 73-93 73s-50-30-93-73z"/><path d="M105 210c-41-42-48-53-39-68 17-26 47-25 74 3l24 26 62-62c63-62 87-70 101-33 4 11-19 41-78 100-46 46-86 84-89 84s-28-23-55-50z"/></symbol><symbol class="esvg-inline--fa efa-check efa-w-16" viewBox="0 0 512 512" id="check-solid" xmlns="http://www.w3.org/2000/svg"><path d="M173.898 439.404l-166.4-166.4c-9.997-9.997-9.997-26.206 0-36.204l36.203-36.204c9.997-9.998 26.207-9.998 36.204 0L192 312.69 432.095 72.596c9.997-9.997 26.207-9.997 36.204 0l36.203 36.204c9.997 9.997 9.997 26.206 0 36.204l-294.4 294.401c-9.998 9.997-26.207 9.997-36.204-.001z"/></symbol><symbol class="fsvg-inline--fa ffa-code ffa-w-20" viewBox="0 0 640 512" id="code-solid" xmlns="http://www.w3.org/2000/svg"><path d="M278.9 511.5l-61-17.7c-6.4-1.8-10-8.5-8.2-14.9L346.2 8.7c1.8-6.4 8.5-10 14.9-8.2l61 17.7c6.4 1.8 10 8.5 8.2 14.9L293.8 503.3c-1.9 6.4-8.5 10.1-14.9 8.2zm-114-112.2l43.5-46.4c4.6-4.9 4.3-12.7-.8-17.2L117 256l90.6-79.7c5.1-4.5 5.5-12.3.8-17.2l-43.5-46.4c-4.5-4.8-12.1-5.1-17-.5L3.8 247.2c-5.1 4.7-5.1 12.8 0 17.5l144.1 135.1c4.9 4.6 12.5 4.4 17-.5zm327.2.6l144.1-135.1c5.1-4.7 5.1-12.8 0-17.5L492.1 112.1c-4.8-4.5-12.4-4.3-17 .5L431.6 159c-4.6 4.9-4.3 12.7.8 17.2L523 256l-90.6 79.7c-5.1 4.5-5.5 12.3-.8 17.2l43.5 46.4c4.5 4.9 12.1 5.1 17 .6z"/></symbol><symbol class="gsvg-inline--fa gfa-comment gfa-w-16" viewBox="0 0 512 512" id="comment-solid" xmlns="http://www.w3.org/2000/svg"><path d="M256 32C114.6 32 0 125.1 0 240c0 49.6 21.4 95 57 130.7C44.5 421.1 2.7 466 2.2 466.5c-2.2 2.3-2.8 5.7-1.5 8.7S4.8 480 8 480c66.3 0 116-31.8 140.6-51.4 32.7 12.3 69 19.4 107.4 19.4 141.4 0 256-93.1 256-208S397.4 32 256 32z"/></symbol><symbol viewBox="0 0 260 310" id="device" xmlns="http://www.w3.org/2000/svg"><path d="M5 297c-3-7-4-76-3-152L5 5h250v300l-123 3c-95 2-124 0-127-11zm225-157V30H30v220h200V140z"/></symbol><symbol class="isvg-inline--fa ifa-eye ifa-w-18" viewBox="0 0 576 512" id="eye-regular" xmlns="http://www.w3.org/2000/svg"><path d="M569.354 231.631C512.97 135.949 407.81 72 288 72 168.14 72 63.004 135.994 6.646 231.631a47.999 47.999 0 0 0 0 48.739C63.031 376.051 168.19 440 288 440c119.86 0 224.996-63.994 281.354-159.631a47.997 47.997 0 0 0 0-48.738zM288 392c-102.556 0-192.091-54.701-240-136 44.157-74.933 123.677-127.27 216.162-135.007C273.958 131.078 280 144.83 280 160c0 30.928-25.072 56-56 56s-56-25.072-56-56l.001-.042C157.794 179.043 152 200.844 152 224c0 75.111 60.889 136 136 136s136-60.889 136-136c0-31.031-10.4-59.629-27.895-82.515C451.704 164.638 498.009 205.106 528 256c-47.908 81.299-137.444 136-240 136z"/></symbol><symbol class="jsvg-inline--fa jfa-facebook-f jfa-w-9" viewBox="0 0 264 512" id="facebook" xmlns="http://www.w3.org/2000/svg"><path d="M76.7 512V283H0v-91h76.7v-71.7C76.7 42.4 124.3 0 193.8 0c33.3 0 61.9 2.5 70.2 3.6V85h-48.2c-37.8 0-45.1 18-45.1 44.3V192H256l-11.7 91h-73.6v229"/></symbol><symbol viewBox="0 0 310 390" id="fire" xmlns="http://www.w3.org/2000/svg"><path d="M0 375c0-13 24-15 155-15s155 2 155 15-24 15-155 15S0 388 0 375zm106-78c-74-70-74-124 1-192 41-38 45-46 40-74-4-20-3-31 5-31 22 0 80 53 94 86 25 59 18 82-37 137-46 45-50 53-44 83 8 45-5 43-59-9z"/></symbol><symbol class="lsvg-inline--fa lfa-google-plus-g lfa-w-20" viewBox="0 0 640 512" id="google-plus" xmlns="http://www.w3.org/2000/svg"><path d="M386.061 228.496c1.834 9.692 3.143 19.384 3.143 31.956C389.204 370.205 315.599 448 204.8 448c-106.084 0-192-85.915-192-192s85.916-192 192-192c51.864 0 95.083 18.859 128.611 50.292l-52.126 50.03c-14.145-13.621-39.028-29.599-76.485-29.599-65.484 0-118.92 54.221-118.92 121.277 0 67.056 53.436 121.277 118.92 121.277 75.961 0 104.513-54.745 108.965-82.773H204.8v-66.009h181.261zm185.406 6.437V179.2h-56.001v55.733h-55.733v56.001h55.733v55.733h56.001v-55.733H627.2v-56.001h-55.733z"/></symbol><symbol viewBox="0 0 24 21" id="heart" xmlns="http://www.w3.org/2000/svg"><path d="M5.713 15.245C1.727 11.073.203 8.662.203 6.533c0-5.091 5.723-7.473 9.972-4.15 1.752 1.37 2.2 1.356 3.772-.114 4.04-3.778 10.834.578 9.448 6.057-.467 1.849-9.558 11.728-11.42 12.412-.413.152-3.23-2.32-6.262-5.493z"/></symbol><symbol class="nsvg-inline--fa nfa-html5 nfa-w-12" viewBox="0 0 384 512" id="html5-brands" xmlns="http://www.w3.org/2000/svg"><path d="M0 32l34.9 395.8L191.5 480l157.6-52.2L384 32H0zm308.2 127.9H124.4l4.1 49.4h175.6l-13.6 148.4-97.9 27v.3h-1.1l-98.7-27.3-6-75.8h47.7L138 320l53.5 14.5 53.7-14.5 6-62.2H84.3L71.5 112.2h241.1l-4.4 47.7z"/></symbol><symbol class="osvg-inline--fa ofa-laptop ofa-w-20" viewBox="0 0 640 512" id="laptop-solid" xmlns="http://www.w3.org/2000/svg"><path d="M624 416H381.54c-.74 19.81-14.71 32-32.74 32H288c-18.69 0-33.02-17.47-32.77-32H16c-8.8 0-16 7.2-16 16v16c0 35.2 28.8 64 64 64h512c35.2 0 64-28.8 64-64v-16c0-8.8-7.2-16-16-16zM576 48c0-26.4-21.6-48-48-48H112C85.6 0 64 21.6 64 48v336h512V48zm-64 272H128V64h384v256z"/></symbol><symbol class="psvg-inline--fa pfa-pencil-alt pfa-w-16" viewBox="0 0 512 512" id="pencil-alt-solid" xmlns="http://www.w3.org/2000/svg"><path d="M497.9 142.1l-46.1 46.1c-4.7 4.7-12.3 4.7-17 0l-111-111c-4.7-4.7-4.7-12.3 0-17l46.1-46.1c18.7-18.7 49.1-18.7 67.9 0l60.1 60.1c18.8 18.7 18.8 49.1 0 67.9zM284.2 99.8L21.6 362.4.4 483.9c-2.9 16.4 11.4 30.6 27.8 27.8l121.5-21.3 262.6-262.6c4.7-4.7 4.7-12.3 0-17l-111-111c-4.8-4.7-12.4-4.7-17.1 0zM124.1 339.9c-5.5-5.5-5.5-14.3 0-19.8l154-154c5.5-5.5 14.3-5.5 19.8 0s5.5 14.3 0 19.8l-154 154c-5.5 5.5-14.3 5.5-19.8 0zM88 424h48v36.3l-64.5 11.3-31.1-31.1L51.7 376H88v48z"/></symbol><symbol class="qsvg-inline--fa qfa-pinterest-p qfa-w-12" viewBox="0 0 384 512" id="pinterest" xmlns="http://www.w3.org/2000/svg"><path d="M204 6.5C101.4 6.5 0 74.9 0 185.6 0 256 39.6 296 63.6 296c9.9 0 15.6-27.6 15.6-35.4 0-9.3-23.7-29.1-23.7-67.8 0-80.4 61.2-137.4 140.4-137.4 68.1 0 118.5 38.7 118.5 109.8 0 53.1-21.3 152.7-90.3 152.7-24.9 0-46.2-18-46.2-43.8 0-37.8 26.4-74.4 26.4-113.4 0-66.2-93.9-54.2-93.9 25.8 0 16.8 2.1 35.4 9.6 50.7-13.8 59.4-42 147.9-42 209.1 0 18.9 2.7 37.5 4.5 56.4 3.4 3.8 1.7 3.4 6.9 1.5 50.4-69 48.6-82.5 71.4-172.8 12.3 23.4 44.1 36 69.3 36 106.2 0 153.9-103.5 153.9-196.8C384 71.3 298.2 6.5 204 6.5z"/></symbol><symbol viewBox="0 0 426 360" id="shape" xmlns="http://www.w3.org/2000/svg"><path d="M100 0h220l106 185-106 175H100L0 185z"/></symbol><symbol class="ssvg-inline--fa sfa-tablet-alt sfa-w-14" viewBox="0 0 448 512" id="tablet-alt-solid" xmlns="http://www.w3.org/2000/svg"><path d="M400 0H48C21.5 0 0 21.5 0 48v416c0 26.5 21.5 48 48 48h352c26.5 0 48-21.5 48-48V48c0-26.5-21.5-48-48-48zM224 480c-17.7 0-32-14.3-32-32s14.3-32 32-32 32 14.3 32 32-14.3 32-32 32zm176-108c0 6.6-5.4 12-12 12H60c-6.6 0-12-5.4-12-12V60c0-6.6 5.4-12 12-12h328c6.6 0 12 5.4 12 12v312z"/></symbol><symbol class="tsvg-inline--fa tfa-twitter tfa-w-16" viewBox="0 0 512 512" id="twitter" xmlns="http://www.w3.org/2000/svg"><path d="M459.37 151.716c.325 4.548.325 9.097.325 13.645 0 138.72-105.583 298.558-298.558 298.558-59.452 0-114.68-17.219-161.137-47.106 8.447.974 16.568 1.299 25.34 1.299 49.055 0 94.213-16.568 130.274-44.832-46.132-.975-84.792-31.188-98.112-72.772 6.498.974 12.995 1.624 19.818 1.624 9.421 0 18.843-1.3 27.614-3.573-48.081-9.747-84.143-51.98-84.143-102.985v-1.299c13.969 7.797 30.214 12.67 47.431 13.319-28.264-18.843-46.781-51.005-46.781-87.391 0-19.492 5.197-37.36 14.294-52.954 51.655 63.675 129.3 105.258 216.365 109.807-1.624-7.797-2.599-15.918-2.599-24.04 0-57.828 46.782-104.934 104.934-104.934 30.213 0 57.502 12.67 76.67 33.137 23.715-4.548 46.456-13.32 66.599-25.34-7.798 24.366-24.366 44.833-46.132 57.827 21.117-2.273 41.584-8.122 60.426-16.243-14.292 20.791-32.161 39.308-52.628 54.253z"/></symbol><symbol class="usvg-inline--fa ufa-user ufa-w-14" viewBox="0 0 448 512" id="user-solid" xmlns="http://www.w3.org/2000/svg"><path d="M224 256c70.7 0 128-57.3 128-128S294.7 0 224 0 96 57.3 96 128s57.3 128 128 128zm89.6 32h-16.7c-22.2 10.2-46.9 16-72.9 16s-50.6-5.8-72.9-16h-16.7C60.2 288 0 348.2 0 422.4V464c0 26.5 21.5 48 48 48h352c26.5 0 48-21.5 48-48v-41.6c0-74.2-60.2-134.4-134.4-134.4z"/></symbol><symbol class="vsvg-inline--fa vfa-wordpress-simple vfa-w-16" viewBox="0 0 512 512" id="wordpress-simple-brands" xmlns="http://www.w3.org/2000/svg"><path d="M256 8C119.3 8 8 119.2 8 256c0 136.7 111.3 248 248 248s248-111.3 248-248C504 119.2 392.7 8 256 8zM33 256c0-32.3 6.9-63 19.3-90.7l106.4 291.4C84.3 420.5 33 344.2 33 256zm223 223c-21.9 0-43-3.2-63-9.1l66.9-194.4 68.5 187.8c.5 1.1 1 2.1 1.6 3.1-23.1 8.1-48 12.6-74 12.6zm30.7-327.5c13.4-.7 25.5-2.1 25.5-2.1 12-1.4 10.6-19.1-1.4-18.4 0 0-36.1 2.8-59.4 2.8-21.9 0-58.7-2.8-58.7-2.8-12-.7-13.4 17.7-1.4 18.4 0 0 11.4 1.4 23.4 2.1l34.7 95.2L200.6 393l-81.2-241.5c13.4-.7 25.5-2.1 25.5-2.1 12-1.4 10.6-19.1-1.4-18.4 0 0-36.1 2.8-59.4 2.8-4.2 0-9.1-.1-14.4-.3C109.6 73 178.1 33 256 33c58 0 110.9 22.2 150.6 58.5-1-.1-1.9-.2-2.9-.2-21.9 0-37.4 19.1-37.4 39.6 0 18.4 10.6 33.9 21.9 52.3 8.5 14.8 18.4 33.9 18.4 61.5 0 19.1-7.3 41.2-17 72.1l-22.2 74.3-80.7-239.6zm81.4 297.2l68.1-196.9c12.7-31.8 17-57.2 17-79.9 0-8.2-.5-15.8-1.5-22.9 17.4 31.8 27.3 68.2 27.3 107 0 82.3-44.6 154.1-110.9 192.7z"/></symbol></svg>