<?xml version="1.0" encoding="utf-8"?><svg xmlns="http://www.w3.org/2000/svg" xmlns:xlink="http://www.w3.org/1999/xlink"><symbol viewBox="0 0 170 280" id="arrow-left" xmlns="http://www.w3.org/2000/svg"><path d="M62 217c-34-34-62-69-62-78 0-8 29-44 65-79 55-54 68-63 83-54 31 20 26 45-19 90l-43 44 42 43c43 44 51 64 30 85-20 20-31 14-96-51z"/></symbol><symbol viewBox="0 0 170 280" id="arrow-right" xmlns="http://www.w3.org/2000/svg"><path d="M12 268c-21-21-13-41 30-85l42-43-43-44C-4 51-9 26 22 6c15-9 28 0 83 54 36 35 65 71 65 80 0 17-119 140-136 140-5 0-15-5-22-12z"/></symbol></svg>