<?xml version="1.0" encoding="utf-8"?><svg xmlns="http://www.w3.org/2000/svg" xmlns:xlink="http://www.w3.org/1999/xlink"><symbol viewBox="0 0 170 280" id="arrow-left" xmlns="http://www.w3.org/2000/svg"><path d="M62 217c-34-34-62-69-62-78 0-8 29-44 65-79 55-54 68-63 83-54 31 20 26 45-19 90l-43 44 42 43c43 44 51 64 30 85-20 20-31 14-96-51z"/></symbol><symbol viewBox="0 0 170 280" id="arrow-right" xmlns="http://www.w3.org/2000/svg"><path d="M12 268c-21-21-13-41 30-85l42-43-43-44C-4 51-9 26 22 6c15-9 28 0 83 54 36 35 65 71 65 80 0 17-119 140-136 140-5 0-15-5-22-12z"/></symbol><symbol viewBox="0 0 330 330" id="check" xmlns="http://www.w3.org/2000/svg"><path d="M72 257c-93-93-93-102-4-190 80-79 110-86 157-37l29 31-47 46-46 47-31-29-30-29-25 24c-14 13-25 28-25 35 0 13 102 115 116 115 5 0 41-31 79-70 38-38 73-70 77-70 5 0 8 12 8 27 0 21-18 46-72 100-43 43-81 73-93 73s-50-30-93-73z"/><path d="M105 210c-41-42-48-53-39-68 17-26 47-25 74 3l24 26 62-62c63-62 87-70 101-33 4 11-19 41-78 100-46 46-86 84-89 84s-28-23-55-50z"/></symbol><symbol viewBox="0 0 260 310" id="device" xmlns="http://www.w3.org/2000/svg"><path d="M5 297c-3-7-4-76-3-152L5 5h250v300l-123 3c-95 2-124 0-127-11zm225-157V30H30v220h200V140z"/></symbol><symbol viewBox="0 0 310 390" id="fire" xmlns="http://www.w3.org/2000/svg"><path d="M0 375c0-13 24-15 155-15s155 2 155 15-24 15-155 15S0 388 0 375zm106-78c-74-70-74-124 1-192 41-38 45-46 40-74-4-20-3-31 5-31 22 0 80 53 94 86 25 59 18 82-37 137-46 45-50 53-44 83 8 45-5 43-59-9z"/></symbol><symbol viewBox="0 0 24 21" id="heart" xmlns="http://www.w3.org/2000/svg"><path d="M5.713 15.245C1.727 11.073.203 8.662.203 6.533c0-5.091 5.723-7.473 9.972-4.15 1.752 1.37 2.2 1.356 3.772-.114 4.04-3.778 10.834.578 9.448 6.057-.467 1.849-9.558 11.728-11.42 12.412-.413.152-3.23-2.32-6.262-5.493z"/></symbol><symbol viewBox="0 0 426 360" id="shape" xmlns="http://www.w3.org/2000/svg"><path d="M100 0h220l106 185-106 175H100L0 185z"/></symbol></svg>