<!DOCTYPE svg PUBLIC "-//W3C//DTD SVG 20010904//EN" "http://www.w3.org/TR/2001/REC-SVG-20010904/DTD/svg10.dtd">
<svg version="1.0" xmlns="http://www.w3.org/2000/svg" width="33px" height="33px" viewBox="0 0 330 330" preserveAspectRatio="xMidYMid meet">
<g id="layer101" fill="#000000" stroke="none">
 <path d="M72 257 c-93 -93 -93 -102 -4 -190 80 -79 110 -86 157 -37 l29 31 -47 46 -46 47 -31 -29 -30 -29 -25 24 c-14 13 -25 28 -25 35 0 13 102 115 116 115 5 0 41 -31 79 -70 38 -38 73 -70 77 -70 5 0 8 12 8 27 0 21 -18 46 -72 100 -43 43 -81 73 -93 73 -12 0 -50 -30 -93 -73z"/>
 <path d="M105 210 c-41 -42 -48 -53 -39 -68 17 -26 47 -25 74 3 l24 26 62 -62 c63 -62 87 -70 101 -33 4 11 -19 41 -78 100 -46 46 -86 84 -89 84 -3 0 -28 -23 -55 -50z"/>
 </g>

</svg>