<!DOCTYPE svg PUBLIC "-//W3C//DTD SVG 20010904//EN" "http://www.w3.org/TR/2001/REC-SVG-20010904/DTD/svg10.dtd">
<svg version="1.0" xmlns="http://www.w3.org/2000/svg" width="31px" height="39px" viewBox="0 0 310 390" preserveAspectRatio="xMidYMid meet">
<g id="layer101" fill="#000000" stroke="none">
 <path d="M0 375 c0 -13 24 -15 155 -15 131 0 155 2 155 15 0 13 -24 15 -155 15 -131 0 -155 -2 -155 -15z"/>
 <path d="M106 297 c-74 -70 -74 -124 1 -192 41 -38 45 -46 40 -74 -4 -20 -3 -31 5 -31 22 0 80 53 94 86 25 59 18 82 -37 137 -46 45 -50 53 -44 83 8 45 -5 43 -59 -9z"/>
 </g>

</svg>